# xmcd
# 
# Track frame offsets:
#     150
#     31867
#     59700
#     81090
#     101677
#     132727
#     170637
#     183319
#     203597
#     219298
# 
# Disc length: 3166
# 
# Revision: 17
# Processed by: cddbd v1.5.2PL0 Copyright (c) Steve Scherf et al.
# Submitted via: fre:ac v1.0.17
# 
DISCID=8d0c5c0a
DTITLE=Rory Gallagher - Blueprint
DYEAR=1973
DGENRE=Blues
TTITLE0=Walk On Hot Coals
TTITLE1=Daughter Of The Everglades
TTITLE2=Banker's Blues
TTITLE3=Hands Off
TTITLE4=Race The Breeze
TTITLE5=Seventh Son Of A Seventh Son
TTITLE6=Unmilitary Two-Step
TTITLE7=If I Had A Reason
TTITLE8=Stompin' Ground
TTITLE9=Treat Her Right
EXTD=
EXTT0=
EXTT1=
EXTT2=
EXTT3=
EXTT4=
EXTT5=
EXTT6=
EXTT7=
EXTT8=[Bonus Track]
EXTT9=[Bonus Track]
PLAYORDER=
